<?xml version="1.0" standalone="no"?>
<!DOCTYPE svg PUBLIC "-//W3C//DTD SVG 20010904//EN"
 "http://www.w3.org/TR/2001/REC-SVG-20010904/DTD/svg10.dtd">
<svg version="1.0" xmlns="http://www.w3.org/2000/svg"
 width="700.000000pt" height="700.000000pt" viewBox="0 0 700.000000 700.000000"
 preserveAspectRatio="xMidYMid meet">
<metadata>
Created by potrace 1.14, written by Peter Selinger 2001-2017
</metadata>
<g transform="translate(0.000000,700.000000) scale(0.100000,-0.100000)"
fill="#000000" stroke="none">
<path d="M542 6803 c-125 -329 -142 -614 -52 -877 72 -210 234 -406 455 -550
181 -118 295 -168 820 -356 109 -39 661 -221 905 -298 34 -11 34 -11 -10 -5
-25 3 -54 7 -65 9 -21 2 -72 11 -115 19 -14 3 -41 7 -60 10 -19 3 -46 8 -60
10 -14 2 -72 11 -130 19 -58 9 -166 27 -240 40 -74 14 -151 28 -170 31 -97 16
-425 104 -582 156 -340 113 -628 253 -850 412 -43 31 -78 54 -78 51 0 -13 94
-126 166 -199 294 -298 676 -527 1084 -651 47 -14 94 -27 104 -29 10 -3 33 -9
50 -14 17 -6 42 -12 56 -15 14 -2 54 -11 90 -19 36 -8 88 -18 115 -23 28 -4
52 -8 55 -9 3 -1 39 -5 80 -9 41 -4 86 -9 100 -11 36 -5 137 -15 195 -20 44
-3 197 -15 265 -20 14 -2 45 -3 70 -4 69 -2 30 -17 -53 -21 -190 -9 -357 -4
-537 15 -19 1 -96 6 -170 10 -183 10 -308 20 -358 30 -10 2 -44 6 -75 9 -86 9
-345 62 -470 95 -248 66 -500 173 -672 285 -47 31 -85 54 -85 52 0 -10 124
-128 229 -220 62 -53 276 -193 381 -249 226 -120 540 -224 760 -253 30 -3 66
-8 80 -10 14 -1 59 -6 100 -10 41 -3 83 -8 92 -10 125 -23 751 -23 875 0 32 6
159 15 138 10 -203 -51 -636 -146 -719 -158 -21 -4 -41 -8 -45 -10 -3 -2 -30
-7 -60 -10 -29 -4 -83 -11 -120 -16 -368 -51 -751 -25 -1052 74 l-99 32 27
-28 c43 -45 167 -126 256 -168 79 -37 214 -81 287 -94 149 -26 524 -27 725 -2
17 2 62 7 100 11 39 4 79 9 90 11 11 2 43 6 70 9 28 3 66 7 85 10 77 9 127 15
165 20 22 3 63 8 90 10 28 2 82 6 120 10 110 9 285 13 285 6 0 -4 -21 -13 -47
-20 -27 -8 -55 -18 -63 -22 -25 -13 -171 -55 -265 -75 -31 -7 -165 -34 -194
-39 -62 -10 -98 -16 -126 -20 -16 -3 -57 -9 -90 -15 -33 -5 -123 -19 -200 -30
-181 -27 -175 -26 -278 -46 -48 -9 -86 -18 -85 -20 5 -4 80 -13 173 -20 50 -3
106 -8 125 -9 254 -22 725 -22 920 0 19 3 58 7 85 10 123 14 143 16 185 21
184 23 623 179 796 282 l93 55 -49 97 c-143 285 -367 538 -661 746 -145 104
-343 212 -501 275 -72 29 -272 97 -300 103 -13 3 -57 14 -98 25 -90 23 -249
56 -345 71 -118 18 -126 20 -260 55 -891 231 -1353 576 -1443 1080 -13 72 -6
335 10 410 9 39 15 71 13 73 -2 2 -16 -32 -33 -75z m2281 -2360 c-7 -2 -19 -2
-25 0 -7 3 -2 5 12 5 14 0 19 -2 13 -5z"/>
<path d="M5240 5329 c-108 -14 -128 -18 -191 -34 -99 -25 -176 -54 -279 -104
-77 -37 -110 -61 -176 -126 -105 -103 -128 -144 -43 -76 107 86 268 158 399
178 70 10 266 10 348 0 81 -10 266 -58 357 -92 117 -44 282 -129 260 -133 -55
-9 -126 -38 -175 -70 -76 -49 -142 -127 -275 -326 -222 -334 -374 -445 -890
-646 -242 -94 -389 -157 -505 -216 -111 -56 -143 -71 -283 -128 -129 -54 -222
-88 -522 -191 -369 -127 -455 -159 -565 -216 -85 -43 -277 -161 -290 -178 -3
-3 -32 -26 -65 -50 -159 -117 -402 -396 -538 -618 -145 -236 -291 -590 -323
-782 -3 -14 -7 -33 -10 -41 -6 -16 -34 -161 -34 -170 1 -3 16 33 34 80 150
386 336 709 560 970 63 73 274 278 336 327 122 95 260 183 383 243 139 68 226
100 452 165 88 25 221 64 295 87 139 41 170 49 170 44 0 -2 -84 -45 -187 -96
-738 -364 -817 -409 -1028 -584 -61 -50 -245 -232 -300 -296 -85 -99 -254
-335 -278 -390 -4 -8 -17 -31 -28 -50 -121 -198 -278 -604 -334 -860 -36 -162
-59 -299 -70 -405 -3 -33 -8 -71 -11 -85 -2 -14 -6 -77 -9 -140 l-5 -115 25
95 c14 52 27 104 30 114 2 11 13 47 24 80 11 34 22 73 25 88 13 76 93 317 153
463 130 311 326 629 552 895 63 74 301 314 376 379 97 83 320 247 417 306 148
90 353 198 452 239 50 21 51 22 -69 -59 -376 -255 -652 -522 -865 -840 -39
-57 -70 -106 -70 -108 0 -2 -26 -51 -58 -108 -143 -257 -242 -554 -272 -821
-15 -123 -9 -414 8 -444 11 -17 11 -17 10 6 -1 32 11 141 23 205 5 28 12 65
15 83 10 62 71 266 106 357 146 374 408 757 722 1054 27 25 56 53 65 61 90 87
291 236 436 324 61 37 117 71 125 77 13 8 168 85 470 232 337 164 743 447
1067 744 22 21 76 70 118 108 59 54 105 111 198 250 309 457 514 655 766 742
66 23 92 27 201 27 99 0 138 -5 187 -21 l63 -21 -19 27 c-10 14 -50 56 -87 92
-256 245 -582 414 -925 479 -122 23 -348 33 -449 19z"/>
</g>
</svg>
